<svg width="42" height="37" viewBox="0 0 42 37" fill="none" xmlns="http://www.w3.org/2000/svg">
<path d="M12.7162 10.3828C12.7162 10.3828 15.2014 7.97758 19.8955 3.43434C20.5858 2.76621 21.1381 2.49896 22.2426 3.43434C23.209 4.36971 29.698 10.2492 29.8361 10.3828C29.9741 10.5165 30.2503 10.6501 30.5264 10.6501C30.8025 10.6501 31.0786 10.5165 31.2167 10.3828C31.6309 9.98195 31.6309 9.31383 31.2167 8.91295C30.9406 8.6457 24.5897 2.89984 23.6232 1.96447C21.9665 0.494592 20.0336 0.494592 18.5149 1.96447C13.6827 6.50771 11.1975 8.91295 11.1975 8.91295C10.7833 9.31383 10.7833 9.98195 11.1975 10.3828C11.6117 10.7837 12.302 10.7837 12.7162 10.3828ZM40.4669 11.4518H1.5331C0.980842 11.4518 0.428589 11.8527 0.428589 12.5208V18.4003C0.428589 18.9348 0.842779 19.4693 1.5331 19.4693H4.1563L6.08918 33.6335C6.08918 34.9698 7.19369 36.1724 8.71239 36.1724H33.0115C34.3922 36.1724 35.4967 35.1034 35.6347 33.7672L37.5676 19.4693V19.3357H40.4669C41.0192 19.3357 41.5714 18.9348 41.5714 18.2667V12.3872C41.4334 11.8527 41.0192 11.4518 40.4669 11.4518ZM33.5638 33.3663V33.4999C33.5638 33.7672 33.2877 34.0344 33.0115 34.0344H8.71239C8.43626 34.0344 8.16013 33.7672 8.16013 33.3663L6.22725 19.3357H35.4967L33.5638 33.3663ZM39.3624 17.3313H2.6376V13.4562H39.5005V17.3313H39.3624Z" fill="black"/>
</svg>
